<svg xmlns="http://www.w3.org/2000/svg" viewBox="0 0 256 256">
  <rect width="256" height="256" rx="52" fill="#17254B"/>
  <g transform="translate(28, 18)">
    <path d="M100 8 L182 54 V146 L142 169 L142 200 L108 175 L100 175 L18 146 V54 Z" fill="#36DAC8"/>
    <path d="M100 28 L162 64 V134 L130 152 L130 178 L108 162 L100 162 L38 134 V64 Z" fill="#17254B"/>
    <path d="M73 95 l8 -5 l8 5 v10 l-8 5 l-8 -5 z" fill="#36DAC8"/>
    <path d="M92 95 l8 -5 l8 5 v10 l-8 5 l-8 -5 z" fill="#36DAC8"/>
    <path d="M111 95 l8 -5 l8 5 v10 l-8 5 l-8 -5 z" fill="#36DAC8"/>
  </g>
</svg>
